<?xml version="1.0" encoding="UTF-8" standalone="no"?><svg xmlns="http://www.w3.org/2000/svg" xmlns:xlink="http://www.w3.org/1999/xlink" contentStyleType="text/css" height="622px" preserveAspectRatio="none" style="width:241px;height:622px;background:#FFFFFF;" version="1.1" viewBox="0 0 241 622" width="241px" zoomAndPan="magnify"><defs/><g><ellipse cx="120.5" cy="20" fill="#222222" rx="10" ry="10" style="stroke:#222222;stroke-width:1.0;"/><rect fill="#F1F1F1" height="33.9688" rx="12.5" ry="12.5" style="stroke:#181818;stroke-width:0.5;" width="110" x="65.5" y="50"/><text fill="#000000" font-family="sans-serif" font-size="12" lengthAdjust="spacing" textLength="90" x="75.5" y="71.1387">加载原始图像(a)</text><rect fill="#F1F1F1" height="33.9688" rx="12.5" ry="12.5" style="stroke:#181818;stroke-width:0.5;" width="146" x="47.5" y="103.9688"/><text fill="#000000" font-family="sans-serif" font-size="12" lengthAdjust="spacing" textLength="126" x="57.5" y="125.1074">将图像(a)转换为灰度图</text><rect fill="#F1F1F1" height="33.9688" rx="12.5" ry="12.5" style="stroke:#181818;stroke-width:0.5;" width="138" x="51.5" y="157.9375"/><text fill="#000000" font-family="sans-serif" font-size="12" lengthAdjust="spacing" textLength="118" x="61.5" y="179.0762">应用拉普拉斯变换 (b)</text><rect fill="#F1F1F1" height="33.9688" rx="12.5" ry="12.5" style="stroke:#181818;stroke-width:0.5;" width="125" x="58" y="211.9063"/><text fill="#000000" font-family="sans-serif" font-size="12" lengthAdjust="spacing" textLength="105" x="68" y="233.0449">应用Sobel处理 (d)</text><rect fill="#F1F1F1" height="33.9688" rx="12.5" ry="12.5" style="stroke:#181818;stroke-width:0.5;" width="131" x="55" y="265.875"/><text fill="#000000" font-family="sans-serif" font-size="12" lengthAdjust="spacing" textLength="111" x="65" y="287.0137">合并Sobel x和y结果</text><rect fill="#F1F1F1" height="33.9688" rx="12.5" ry="12.5" style="stroke:#181818;stroke-width:0.5;" width="219" x="11" y="319.8438"/><text fill="#000000" font-family="sans-serif" font-size="12" lengthAdjust="spacing" textLength="199" x="21" y="340.9824">使用5x5均值滤波平滑Sobel图像 (e)</text><rect fill="#F1F1F1" height="33.9688" rx="12.5" ry="12.5" style="stroke:#181818;stroke-width:0.5;" width="205" x="18" y="373.8125"/><text fill="#000000" font-family="sans-serif" font-size="12" lengthAdjust="spacing" textLength="185" x="28" y="394.9512">由(c)和(e)相乘形成的掩蔽图像 (f)</text><rect fill="#F1F1F1" height="33.9688" rx="12.5" ry="12.5" style="stroke:#181818;stroke-width:0.5;" width="194" x="23.5" y="427.7813"/><text fill="#000000" font-family="sans-serif" font-size="12" lengthAdjust="spacing" textLength="174" x="33.5" y="448.9199">将(a)和(f)相加得到锐化图像 (g)</text><rect fill="#F1F1F1" height="33.9688" rx="12.5" ry="12.5" style="stroke:#181818;stroke-width:0.5;" width="144" x="48.5" y="481.75"/><text fill="#000000" font-family="sans-serif" font-size="12" lengthAdjust="spacing" textLength="124" x="58.5" y="502.8887">对(g)应用幂律变换 (h)</text><rect fill="#F1F1F1" height="33.9688" rx="12.5" ry="12.5" style="stroke:#181818;stroke-width:0.5;" width="114" x="63.5" y="535.7188"/><text fill="#000000" font-family="sans-serif" font-size="12" lengthAdjust="spacing" textLength="94" x="73.5" y="556.8574">显示结果图像 (h)</text><ellipse cx="120.5" cy="600.6875" fill="none" rx="11" ry="11" style="stroke:#222222;stroke-width:1.0;"/><ellipse cx="120.5" cy="600.6875" fill="#222222" rx="6" ry="6" style="stroke:#111111;stroke-width:1.0;"/><line style="stroke:#181818;stroke-width:1.0;" x1="120.5" x2="120.5" y1="30" y2="50"/><polygon fill="#181818" points="116.5,40,120.5,50,124.5,40,120.5,44" style="stroke:#181818;stroke-width:1.0;"/><line style="stroke:#181818;stroke-width:1.0;" x1="120.5" x2="120.5" y1="83.9688" y2="103.9688"/><polygon fill="#181818" points="116.5,93.9688,120.5,103.9688,124.5,93.9688,120.5,97.9688" style="stroke:#181818;stroke-width:1.0;"/><line style="stroke:#181818;stroke-width:1.0;" x1="120.5" x2="120.5" y1="137.9375" y2="157.9375"/><polygon fill="#181818" points="116.5,147.9375,120.5,157.9375,124.5,147.9375,120.5,151.9375" style="stroke:#181818;stroke-width:1.0;"/><line style="stroke:#181818;stroke-width:1.0;" x1="120.5" x2="120.5" y1="191.9063" y2="211.9063"/><polygon fill="#181818" points="116.5,201.9063,120.5,211.9063,124.5,201.9063,120.5,205.9063" style="stroke:#181818;stroke-width:1.0;"/><line style="stroke:#181818;stroke-width:1.0;" x1="120.5" x2="120.5" y1="245.875" y2="265.875"/><polygon fill="#181818" points="116.5,255.875,120.5,265.875,124.5,255.875,120.5,259.875" style="stroke:#181818;stroke-width:1.0;"/><line style="stroke:#181818;stroke-width:1.0;" x1="120.5" x2="120.5" y1="299.8438" y2="319.8438"/><polygon fill="#181818" points="116.5,309.8438,120.5,319.8438,124.5,309.8438,120.5,313.8438" style="stroke:#181818;stroke-width:1.0;"/><line style="stroke:#181818;stroke-width:1.0;" x1="120.5" x2="120.5" y1="353.8125" y2="373.8125"/><polygon fill="#181818" points="116.5,363.8125,120.5,373.8125,124.5,363.8125,120.5,367.8125" style="stroke:#181818;stroke-width:1.0;"/><line style="stroke:#181818;stroke-width:1.0;" x1="120.5" x2="120.5" y1="407.7813" y2="427.7813"/><polygon fill="#181818" points="116.5,417.7813,120.5,427.7813,124.5,417.7813,120.5,421.7813" style="stroke:#181818;stroke-width:1.0;"/><line style="stroke:#181818;stroke-width:1.0;" x1="120.5" x2="120.5" y1="461.75" y2="481.75"/><polygon fill="#181818" points="116.5,471.75,120.5,481.75,124.5,471.75,120.5,475.75" style="stroke:#181818;stroke-width:1.0;"/><line style="stroke:#181818;stroke-width:1.0;" x1="120.5" x2="120.5" y1="515.7188" y2="535.7188"/><polygon fill="#181818" points="116.5,525.7188,120.5,535.7188,124.5,525.7188,120.5,529.7188" style="stroke:#181818;stroke-width:1.0;"/><line style="stroke:#181818;stroke-width:1.0;" x1="120.5" x2="120.5" y1="569.6875" y2="589.6875"/><polygon fill="#181818" points="116.5,579.6875,120.5,589.6875,124.5,579.6875,120.5,583.6875" style="stroke:#181818;stroke-width:1.0;"/></g></svg>